<svg width="0" height="0" class="hidden">
  <symbol fill="none" xmlns="http://www.w3.org/2000/svg" viewBox="0 0 24 24" id="Calling">
    <path d="M14.3525 2.75C18.0535 3.161 20.9775 6.081 21.3935 9.782" stroke="#FF5722" stroke-width="1.5" stroke-linecap="round" stroke-linejoin="round"></path>
    <path d="M14.3525 6.29297C16.1235 6.63697 17.5075 8.02197 17.8525 9.79297" stroke="#FF5722" stroke-width="1.5" stroke-linecap="round" stroke-linejoin="round"></path>
    <path fill-rule="evenodd" clip-rule="evenodd" d="M7.70049 16.299C0.802504 9.40022 1.78338 6.24115 2.51055 5.22316C2.60396 5.05862 4.90647 1.61188 7.37459 3.63407C13.5008 8.67945 5.7451 7.96611 10.8894 13.1113C16.0348 18.2554 15.3203 10.5 20.3659 16.6249C22.3882 19.094 18.9413 21.3964 18.7778 21.4888C17.7598 22.217 14.5995 23.1978 7.70049 16.299Z" stroke="#FF5722" stroke-width="1.5" stroke-linecap="round" stroke-linejoin="round"></path>
  </symbol>
  <symbol fill="none" xmlns="http://www.w3.org/2000/svg" viewBox="0 0 24 24" id="linkedin">
    <path d="M20.447 20.452H16.893V14.883C16.893 13.555 16.866 11.846 15.041 11.846C13.188 11.846 12.905 13.291 12.905 14.785V20.452H9.351V9H12.765V10.561H12.811C13.288 9.661 14.448 8.711 16.181 8.711C19.782 8.711 20.448 11.081 20.448 14.166V20.452H20.447ZM5.337 7.433C4.193 7.433 3.274 6.507 3.274 5.368C3.274 4.23 4.194 3.305 5.337 3.305C6.477 3.305 7.401 4.23 7.401 5.368C7.401 6.507 6.476 7.433 5.337 7.433ZM7.119 20.452H3.555V9H7.119V20.452ZM22.225 0H1.771C0.792 0 0 0.774 0 1.729V22.271C0 23.227 0.792 24 1.771 24H22.222C23.2 24 24 23.227 24 22.271V1.729C24 0.774 23.2 0 22.222 0H22.225Z" fill="#FF5722"></path>
  </symbol>
  <symbol fill="none" xmlns="http://www.w3.org/2000/svg" viewBox="0 0 24 24" id="Location">
    <path fill-rule="evenodd" clip-rule="evenodd" d="M14.5103 10.7105C14.5103 9.3292 13.391 8.20996 12.0097 8.20996C10.6295 8.20996 9.51025 9.3292 9.51025 10.7105C9.51025 12.0907 10.6295 13.21 12.0097 13.21C13.391 13.21 14.5103 12.0907 14.5103 10.7105Z" stroke="#FF5722" stroke-width="1.5" stroke-linecap="round" stroke-linejoin="round"></path>
    <path fill-rule="evenodd" clip-rule="evenodd" d="M11.9995 21C9.10148 21 4.5 15.9587 4.5 10.5986C4.5 6.40246 7.8571 3 11.9995 3C16.1419 3 19.5 6.40246 19.5 10.5986C19.5 15.9587 14.8985 21 11.9995 21Z" stroke="#FF5722" stroke-width="1.5" stroke-linecap="round" stroke-linejoin="round"></path>
  </symbol>
  <symbol fill="none" xmlns="http://www.w3.org/2000/svg" viewBox="0 0 24 24" id="Message">
    <path d="M17.5449 9.01904C17.5449 9.01904 14.3349 12.8717 11.987 12.8717C9.64016 12.8717 6.39404 9.01904 6.39404 9.01904" stroke="#FF5722" stroke-width="1.5" stroke-linecap="round" stroke-linejoin="round"></path>
    <path fill-rule="evenodd" clip-rule="evenodd" d="M2.45215 11.9688C2.45215 5.13075 4.8331 2.85205 11.976 2.85205C19.1188 2.85205 21.4998 5.13075 21.4998 11.9688C21.4998 18.8059 19.1188 21.0856 11.976 21.0856C4.8331 21.0856 2.45215 18.8059 2.45215 11.9688Z" stroke="#FF5722" stroke-width="1.5" stroke-linecap="round" stroke-linejoin="round"></path>
  </symbol>
  <symbol fill="none" xmlns="http://www.w3.org/2000/svg" viewBox="0 0 24 24" id="twitter">
    <path d="M23.953 4.57C23.0545 4.9656 22.1026 5.22674 21.128 5.345C22.1541 4.72825 22.9224 3.76104 23.291 2.622C22.34 3.177 21.286 3.581 20.164 3.806C19.4238 3.01443 18.4429 2.48942 17.3736 2.3125C16.3044 2.13558 15.2067 2.31665 14.2509 2.82759C13.2952 3.33853 12.5349 4.15075 12.0881 5.13812C11.6412 6.12549 11.533 7.23277 11.78 8.288C7.69 8.095 4.067 6.13 1.64 3.162C1.19879 3.91181 0.968664 4.76702 0.974 5.637C0.974 7.347 1.844 8.85 3.162 9.733C2.38086 9.70813 1.61697 9.49693 0.934 9.117V9.177C0.933557 10.3134 1.32627 11.4149 2.04551 12.2948C2.76474 13.1746 3.76621 13.7785 4.88 14.004C4.1583 14.1974 3.40241 14.2264 2.668 14.089C2.98412 15.067 3.59766 15.9219 4.42301 16.5345C5.24837 17.1471 6.24435 17.4867 7.272 17.506C5.53153 18.8719 3.38248 19.6133 1.17 19.611C0.78 19.611 0.391 19.588 0 19.544C2.25571 20.9883 4.87851 21.755 7.557 21.753C16.61 21.753 21.555 14.257 21.555 7.768C21.555 7.558 21.555 7.348 21.54 7.138C22.506 6.44286 23.3392 5.57981 24 4.59L23.953 4.57Z" fill="#FF5722"></path>
  </symbol>
  <symbol fill="none" xmlns="http://www.w3.org/2000/svg" viewBox="0 0 24 24" id="Telegram">
    <path d="M11.944 2.14913e-06C8.77112 0.0148091 5.73324 1.28562 3.4949 3.53446C1.25656 5.78329 -3.4549e-05 8.82708 7.12435e-10 12C7.12441e-10 15.1826 1.26428 18.2348 3.51472 20.4853C5.76516 22.7357 8.8174 24 12 24C15.1826 24 18.2348 22.7357 20.4853 20.4853C22.7357 18.2348 24 15.1826 24 12C24 8.8174 22.7357 5.76516 20.4853 3.51472C18.2348 1.26428 15.1826 2.14913e-06 12 2.14913e-06C11.9813 -4.14065e-05 11.9627 -4.14065e-05 11.944 2.14913e-06V2.14913e-06ZM16.906 7.224C17.006 7.222 17.227 7.247 17.371 7.364C17.4667 7.4471 17.5277 7.56308 17.542 7.689C17.558 7.782 17.578 7.995 17.562 8.161C17.382 10.059 16.6 14.663 16.202 16.788C16.034 17.688 15.703 17.989 15.382 18.018C14.686 18.083 14.157 17.558 13.482 17.116C12.426 16.423 11.829 15.992 10.804 15.316C9.619 14.536 10.387 14.106 11.062 13.406C11.239 13.222 14.309 10.429 14.369 10.176C14.376 10.144 14.383 10.026 14.313 9.964C14.243 9.902 14.139 9.923 14.064 9.94C13.958 9.964 12.271 11.08 9.003 13.285C8.523 13.615 8.09 13.775 7.701 13.765C7.273 13.757 6.449 13.524 5.836 13.325C5.084 13.08 4.487 12.951 4.539 12.536C4.566 12.32 4.864 12.099 5.432 11.873C8.93 10.349 11.262 9.344 12.43 8.859C15.762 7.473 16.455 7.232 16.906 7.224V7.224Z" fill="#FF5722"></path>
  </symbol>
</svg>